<?xml version="1.0" encoding="UTF-8"?>
<svg id="Layer_1" xmlns="http://www.w3.org/2000/svg" xmlns:xlink="http://www.w3.org/1999/xlink" version="1.1" viewBox="0 0 32 32">
  <!-- Generator: Adobe Illustrator 29.5.1, SVG Export Plug-In . SVG Version: 2.1.0 Build 141)  -->
  <defs>
    <style>
      .st0 {
        fill: none;
      }

      .st1 {
        fill: #094834;
      }

      .st2 {
        clip-path: url(#clippath);
      }
    </style>
    <clipPath id="clippath">
      <rect class="st0" width="32" height="32"/>
    </clipPath>
  </defs>
  <g class="st2">
    <g>
      <path class="st1" d="M10,12.4c1.33,0,2.4-1.07,2.4-2.4s-1.07-2.4-2.4-2.4-2.4,1.07-2.4,2.4,1.07,2.4,2.4,2.4Z"/>
      <path class="st1" d="M25.6,17.2V7.4c0-1.87-1.52-3.4-3.4-3.4-.9,0-1.76.36-2.4,1l-1.5,1.5c-.19-.06-.4-.1-.61-.1-.48,0-.92.14-1.3.38l3.31,3.31c.24-.37.38-.82.38-1.3,0-.22-.04-.41-.08-.61l1.5-1.5c.18-.18.43-.29.7-.29.55,0,1,.44,1,1v9.8h-8.22c-.36-.25-.68-.54-.98-.86l-1.68-1.86c-.23-.25-.52-.46-.83-.6-.37-.18-.78-.28-1.2-.28-1.49.01-2.69,1.21-2.69,2.7v.9h-3.6v7.2c0,1.32,1.08,2.4,2.4,2.4,0,.66.54,1.2,1.2,1.2h16.8c.66,0,1.2-.54,1.2-1.2,1.32,0,2.4-1.08,2.4-2.4v-7.2h-2.4ZM25.6,24.4H6.4v-4.8h19.2v4.8Z"/>
    </g>
  </g>
</svg>