<?xml version="1.0" encoding="UTF-8"?>
<svg id="Layer_1" xmlns="http://www.w3.org/2000/svg" version="1.1" viewBox="0 0 32 32">
  <!-- Generator: Adobe Illustrator 29.5.1, SVG Export Plug-In . SVG Version: 2.1.0 Build 141)  -->
  <path d="M16,31c-.57,0-1.14-.03-1.71-.1-.35-.04-.67-.25-.84-.56l-1.03-1.86c-.94-.27-1.85-.65-2.71-1.12l-2.05.59c-.34.1-.71.02-.99-.2-.44-.35-.87-.74-1.28-1.14-.4-.4-.79-.83-1.14-1.28-.22-.28-.3-.65-.2-.99l.59-2.05c-.48-.86-.85-1.77-1.12-2.71l-1.86-1.03c-.31-.17-.52-.49-.56-.84-.06-.56-.1-1.14-.1-1.71s.03-1.14.1-1.71c.04-.35.25-.67.56-.84l1.86-1.03c.27-.94.65-1.86,1.12-2.71l-.59-2.05c-.1-.34-.02-.71.2-.99.35-.44.74-.87,1.14-1.28.4-.4.83-.79,1.28-1.14.28-.22.65-.3.99-.2l2.05.59c.86-.48,1.77-.86,2.71-1.12l1.03-1.86c.17-.31.49-.52.84-.56.56-.06,1.14-.1,1.71-.1s1.14.03,1.71.1c.35.04.67.25.84.56l1.03,1.86c.94.27,1.85.65,2.71,1.12l2.05-.59c.34-.1.71-.02.99.2.44.35.87.74,1.28,1.14.4.4.79.83,1.14,1.28.22.28.3.65.2.99l-.59,2.05c.48.86.85,1.77,1.12,2.71l1.86,1.03c.31.17.52.49.56.84h0c.06.56.1,1.14.1,1.71s-.03,1.14-.1,1.71c-.04.35-.25.67-.56.84l-1.86,1.03c-.27.94-.65,1.85-1.12,2.71l.59,2.05c.1.34.02.71-.2.99-.35.44-.74.87-1.14,1.28-.4.4-.83.79-1.28,1.14-.28.22-.65.3-.99.2l-2.05-.59c-.86.48-1.77.85-2.71,1.12l-1.03,1.86c-.17.31-.49.52-.84.56-.56.06-1.14.1-1.71.1ZM9.75,26.55c.07,0,.13.02.19.05.89.51,1.85.91,2.84,1.18.1.03.19.09.24.19l1.11,2c.05.09.14.15.25.16.54.06,1.08.09,1.62.09s1.09-.03,1.62-.09c.1-.01.2-.07.25-.16l1.11-2c.05-.09.14-.16.24-.19.99-.27,1.94-.67,2.84-1.18.11-.06.24-.07.34-.02l2.16.62c.1.03.21,0,.29-.06.42-.33.83-.7,1.21-1.08.38-.38.75-.79,1.08-1.21.07-.08.09-.19.06-.29l-.62-2.17c-.04-.11-.04-.23.02-.34.51-.89.91-1.85,1.18-2.84.03-.1.09-.19.19-.24l2-1.11c.09-.05.15-.14.16-.25.06-.54.09-1.08.09-1.62s-.03-1.09-.09-1.62h0c-.01-.1-.07-.2-.16-.25l-1.98-1.1c-.1-.05-.18-.14-.21-.25-.27-.99-.67-1.95-1.18-2.84-.06-.11-.07-.24-.02-.34l.62-2.16c.03-.1,0-.21-.06-.29-.33-.42-.7-.83-1.08-1.21-.38-.38-.79-.75-1.21-1.08-.08-.07-.19-.09-.29-.06l-2.14.61c-.11.05-.24.05-.36-.01-.9-.51-1.85-.91-2.84-1.18-.1-.03-.19-.09-.24-.19l-1.11-2.01c-.05-.09-.14-.15-.25-.16-.53-.06-1.08-.09-1.62-.09s-1.09.03-1.62.09c-.1.01-.2.07-.25.16l-1.11,2.01c-.05.09-.14.16-.24.19-.99.27-1.94.67-2.84,1.18-.11.06-.25.07-.36.01l-2.14-.61c-.1-.03-.21,0-.29.06-.42.33-.83.7-1.21,1.08-.38.38-.75.79-1.08,1.21-.07.08-.09.19-.06.29l.62,2.17c.04.11.04.23-.02.34-.51.89-.91,1.85-1.18,2.84-.03.11-.11.2-.21.25l-1.98,1.1c-.09.05-.15.14-.16.25-.06.54-.09,1.08-.09,1.62s.03,1.09.09,1.62c.01.1.07.2.16.25l2,1.11c.09.05.16.14.19.24.27.99.67,1.94,1.18,2.84.06.11.07.24.02.34l-.62,2.16c-.03.1,0,.21.06.29.33.42.7.83,1.08,1.21.38.38.79.75,1.21,1.08.08.07.19.09.29.06l2.17-.62s.09-.03.14-.03ZM16,26.09c-2.7,0-5.23-1.05-7.14-2.96-1.91-1.91-2.96-4.44-2.96-7.14s1.05-5.23,2.96-7.14c1.91-1.91,4.44-2.96,7.14-2.96s5.23,1.05,7.14,2.96c1.91,1.91,2.96,4.44,2.96,7.14s-1.05,5.23-2.96,7.14c-1.91,1.91-4.44,2.96-7.14,2.96ZM16,6.68c-5.14,0-9.32,4.18-9.32,9.32s4.18,9.32,9.32,9.32,9.32-4.18,9.32-9.32-4.18-9.32-9.32-9.32Z"/>
  <path d="M16,24.27c-4.56,0-8.27-3.71-8.27-8.27s3.71-8.27,8.27-8.27,8.27,3.71,8.27,8.27-3.71,8.27-8.27,8.27ZM16,8.5c-4.13,0-7.5,3.36-7.5,7.5s3.36,7.5,7.5,7.5,7.5-3.36,7.5-7.5-3.36-7.5-7.5-7.5ZM16.57,21.66l-1.15-.36,1.47-4.7h-3.43l1.96-6.27,1.15.36-1.47,4.7h3.43l-1.96,6.27Z"/>
</svg>