<?xml version="1.0" encoding="UTF-8"?>
<svg id="Layer_1" xmlns="http://www.w3.org/2000/svg" version="1.1" viewBox="0 0 32 32">
  <!-- Generator: Adobe Illustrator 29.5.1, SVG Export Plug-In . SVG Version: 2.1.0 Build 141)  -->
  <g>
    <path d="M28.55,16.59h-5.84c-.65,0-1.27-.29-1.73-.82-.46-.53-.72-1.24-.72-1.99s.25-1.46.72-1.99c.46-.53,1.08-.82,1.73-.82h5.84c.65,0,1.27.29,1.73.82.46.53.72,1.24.72,1.99s-.25,1.46-.72,1.99c-.46.53-1.08.82-1.73.82ZM22.72,12.16c-.38,0-.73.17-1,.48-.27.31-.41.72-.41,1.15s.15.84.41,1.15c.27.31.62.48,1,.48h5.84c.38,0,.73-.17,1-.48.27-.31.41-.72.41-1.15s-.15-.84-.41-1.15c-.27-.31-.62-.48-1-.48h-5.84Z"/>
    <path d="M27.46,21.03h-4.74c-.65,0-1.27-.29-1.73-.82-.46-.53-.72-1.24-.72-1.99s.25-1.46.72-1.99c.46-.53,1.08-.82,1.73-.82h4.74c.65,0,1.27.29,1.73.82.46.53.72,1.24.72,1.99s-.25,1.46-.72,1.99c-.46.53-1.08.82-1.73.82ZM22.72,16.59c-.38,0-.73.17-1,.48-.27.31-.41.72-.41,1.15s.15.84.41,1.15c.27.31.62.48,1,.48h4.74c.38,0,.73-.17,1-.48.27-.31.41-.71.41-1.15s-.15-.84-.41-1.15c-.27-.31-.62-.48-1-.48h-4.74Z"/>
    <path d="M26.39,25.47h-3.68c-.65,0-1.27-.29-1.73-.82s-.72-1.24-.72-1.99.25-1.46.72-1.99,1.08-.82,1.73-.82h3.68c.65,0,1.27.29,1.73.82.46.53.72,1.24.72,1.99s-.25,1.46-.72,1.99c-.46.53-1.08.82-1.73.82ZM22.72,21.03c-.38,0-.73.17-1,.48-.27.31-.41.71-.41,1.15s.15.84.41,1.15.62.48,1,.48h3.68c.38,0,.73-.17,1-.48.27-.31.41-.72.41-1.15s-.15-.84-.41-1.15c-.27-.31-.62-.48-1-.48h-3.68Z"/>
    <path d="M25.32,29.9h-2.6c-.65,0-1.27-.29-1.73-.82-.46-.53-.72-1.24-.72-1.99s.25-1.46.72-1.99c.46-.53,1.08-.82,1.73-.82h2.6c.65,0,1.27.29,1.73.82.46.53.72,1.24.72,1.99s-.25,1.46-.72,1.99c-.46.53-1.08.82-1.73.82ZM22.72,25.47c-.38,0-.73.17-1,.48-.27.31-.41.72-.41,1.15s.15.84.41,1.15c.27.31.62.48,1,.48h2.6c.38,0,.73-.17,1-.48.27-.31.41-.71.41-1.15s-.15-.84-.41-1.15c-.27-.31-.62-.48-1-.48h-2.6Z"/>
  </g>
  <g>
    <rect x="8.77" y="28.71" width="13.95" height="1.19"/>
    <path d="M22.72,12.15h-3.68c-.18,0-.35-.11-.44-.29-.09-.18-.1-.4-.02-.58.43-.95.77-1.98.99-2.98.22-1.02.33-2.06.33-3.11v-1.38c0-.43-.15-.84-.41-1.14-.27-.31-.62-.48-1-.48s-.73.17-.99.47c-.27.31-.42.72-.42,1.15,0,1.12-.17,2.05-.6,3.22-.4,1.1-.97,2.07-1.69,2.89-.63.71-1.36,1.27-2.17,1.65-.81.38-1.67.58-2.55.58h-1.28v-1.19h1.28c.74,0,1.47-.17,2.16-.49.69-.33,1.31-.8,1.84-1.4.63-.71,1.12-1.56,1.47-2.51.37-1.01.52-1.81.52-2.76,0-.75.26-1.46.72-1.99.45-.53,1.07-.82,1.72-.82s1.27.29,1.73.83c.46.53.72,1.23.72,1.98v1.38c0,1.14-.12,2.29-.36,3.4-.17.79-.41,1.6-.71,2.38h2.85v1.19Z"/>
    <path d="M11.63,23.25h-1.05v-1.19h1.05c2.91,0,5.27-2.72,5.27-6.06h1.03c0,4-2.83,7.25-6.3,7.25Z"/>
  </g>
  <g>
    <path d="M8.77,31H1v-1.19h7.26V11.05H1v-1.19h7.77c.29,0,.52.27.52.59v19.95c0,.33-.23.59-.52.59Z"/>
    <rect x="6.02" y="26.98" width="1.03" height="1.19"/>
    <rect x="3.95" y="26.98" width="1.03" height="1.19"/>
  </g>
</svg>