<?xml version="1.0" encoding="UTF-8"?>
<svg id="Layer_1" xmlns="http://www.w3.org/2000/svg" version="1.1" viewBox="0 0 32 32">
  <!-- Generator: Adobe Illustrator 29.5.1, SVG Export Plug-In . SVG Version: 2.1.0 Build 141)  -->
  <path d="M15.99,24.54c-5.42,0-9.84-4.41-9.84-9.84S10.56,4.87,15.99,4.87s9.84,4.41,9.84,9.84-4.41,9.84-9.84,9.84ZM15.99,5.86c-4.88,0-8.85,3.97-8.85,8.85s3.97,8.85,8.85,8.85,8.85-3.97,8.85-8.85-3.97-8.85-8.85-8.85Z"/>
  <path d="M15.99,28.39c-7.54,0-13.68-6.14-13.68-13.68S8.44,1.03,15.99,1.03s13.68,6.14,13.68,13.68-6.14,13.68-13.68,13.68ZM15.99,2.02C8.99,2.02,3.29,7.71,3.29,14.71s5.69,12.69,12.69,12.69,12.69-5.69,12.69-12.69S22.98,2.02,15.99,2.02Z"/>
  <path d="M15.99,17.4c-1.48,0-2.69-1.21-2.69-2.69s1.21-2.69,2.69-2.69,2.69,1.21,2.69,2.69-1.21,2.69-2.69,2.69ZM15.99,13.01c-.94,0-1.7.76-1.7,1.7s.76,1.7,1.7,1.7,1.7-.76,1.7-1.7-.76-1.7-1.7-1.7Z"/>
  <g>
    <rect x="15.49" y="8.56" width=".99" height="1.34"/>
    <rect x="13.39" y="8.97" width=".99" height="1.34" transform="translate(-2.63 6.04) rotate(-22.48)"/>
    <rect x="11.61" y="10.16" width=".99" height="1.34" transform="translate(-4.11 11.74) rotate(-45.02)"/>
    <rect x="10.42" y="11.94" width=".99" height="1.34" transform="translate(-4.91 17.88) rotate(-67.53)"/>
    <rect x="9.83" y="14.21" width="1.34" height=".99"/>
    <rect x="10.25" y="16.31" width="1.34" height=".99" transform="translate(-5.6 5.45) rotate(-22.49)"/>
    <rect x="11.44" y="18.09" width="1.34" height=".99" transform="translate(-9.6 14.01) rotate(-45)"/>
    <rect x="13.22" y="19.28" width="1.34" height=".99" transform="translate(-9.7 25.04) rotate(-67.51)"/>
    <rect x="15.49" y="19.53" width=".99" height="1.34"/>
    <rect x="17.59" y="19.11" width=".99" height="1.34" transform="translate(-6.19 8.43) rotate(-22.5)"/>
    <rect x="19.37" y="17.92" width=".99" height="1.34" transform="translate(-7.33 19.51) rotate(-45.04)"/>
    <rect x="20.56" y="16.14" width=".99" height="1.34" transform="translate(-2.53 29.83) rotate(-67.51)"/>
    <rect x="20.8" y="14.21" width="1.34" height=".99"/>
    <rect x="20.39" y="12.12" width="1.34" height=".99" transform="translate(-3.22 9.02) rotate(-22.5)"/>
    <rect x="19.2" y="10.34" width="1.34" height=".99" transform="translate(-1.84 17.21) rotate(-44.98)"/>
    <rect x="17.42" y="9.15" width="1.34" height=".99" transform="translate(2.26 22.66) rotate(-67.51)"/>
  </g>
  <g>
    <rect x="13.3" y="7.72" width="18.37" height=".99" transform="translate(.78 18.3) rotate(-44.99)"/>
    <polygon points="29.7 4.79 25.9 4.79 25.9 1 26.89 1 26.89 3.8 29.7 3.8 29.7 4.79"/>
  </g>
  <g>
    <rect x="5.39" y="27.95" width="5.34" height=".99" transform="translate(-20.6 21.2) rotate(-60)"/>
    <rect x="23.42" y="25.77" width=".99" height="5.34" transform="translate(-11.02 15.77) rotate(-30)"/>
  </g>
</svg>