<?xml version="1.0" encoding="UTF-8"?>
<svg id="Layer_1" xmlns="http://www.w3.org/2000/svg" version="1.1" viewBox="0 0 32 32">
  <!-- Generator: Adobe Illustrator 29.5.1, SVG Export Plug-In . SVG Version: 2.1.0 Build 141)  -->
  <path d="M27.59,25.89l-6.14-6.14c1.29-1.65,2.06-3.72,2.06-5.97,0-5.36-4.36-9.72-9.72-9.72S4.06,8.42,4.06,13.78s4.36,9.72,9.72,9.72c2.25,0,4.32-.77,5.97-2.06l6.14,6.14c.23.23.54.35.85.35s.61-.12.85-.35c.47-.47.47-1.23,0-1.7ZM6.46,13.78c0-4.04,3.28-7.32,7.32-7.32s7.32,3.28,7.32,7.32-3.28,7.32-7.32,7.32-7.32-3.28-7.32-7.32Z"/>
</svg>