<?xml version="1.0" encoding="UTF-8"?>
<svg id="Layer_1" xmlns="http://www.w3.org/2000/svg" version="1.1" viewBox="0 0 32 32">
  <!-- Generator: Adobe Illustrator 29.5.1, SVG Export Plug-In . SVG Version: 2.1.0 Build 141)  -->
  <path d="M30.17,12.07c.34,1.18.53,2.41.55,3.65,0,.44,0,.95-.04,1.39,0,.08-.02.27-.03.35-.01.08-.06.49-.07.57-.02.21-.08.47-.12.68-.02.15-.11.52-.15.68-.05.22-.12.45-.18.67-.34,1.14-.84,2.24-1.45,3.26-.12.18-.26.41-.37.58-.13.17-.34.49-.47.66-.14.17-.29.37-.43.54l-.3.35s-.04.04-.04.04c-.07.08-.2.21-.28.29-2.34,2.45-5.6,4.01-8.98,4.27l-.46.03h-.46c-.3.02-.63.01-.93,0-.3,0-.63-.03-.93-.05-.48-.04-.95-.1-1.42-.2.18-1.31.46-2.61.88-3.86.33-.98.74-1.93,1.25-2.83.37-.64.78-1.26,1.28-1.81,1.8.15,3.63-.16,5.29-.88.78-.33,1.52-.77,2.21-1.26.69-.48,1.35-1.05,1.92-1.67.06-.07.17-.19.23-.26.11-.12.27-.34.37-.47.03-.05.11-.16.15-.21.05-.08.15-.2.19-.29.03-.04.2-.33.23-.37.08-.14.17-.31.25-.45.1-.21.24-.49.32-.7l.13-.32.11-.32c.03-.09.08-.23.11-.32.11-.37.25-.9.35-1.28.42-1.56.88-3.12,1.5-4.61.08-.2.23-.49.33-.68-1.2-.61-2.49-1.04-3.83-1.19-.11-.02-.28-.03-.39-.04-.3-.03-.68-.05-.99-.05-.19,0-.41,0-.59,0-.27,0-.62.04-.89.06-.22.03-.46.05-.68.09l-.39.07-.39.08c-.22.04-.45.11-.67.17-.26.08-.59.18-.85.28-.74.27-1.46.63-2.13,1.05-.09.06-.32.21-.41.27-.11.08-.29.21-.4.29-.16.12-.31.25-.46.37-.08.07-.29.26-.37.33-.1.1-.25.25-.35.35,0,0-.04.03-.04.03,0,0-.03.04-.03.04-.48.5-.92,1.06-1.29,1.64-.06.1-.22.37-.28.47,0,0-.02.04-.02.04,0,0-.09.18-.09.18-1.24,2.36-1.47,5.24-.55,7.75,0,0,.37,1.06.37,1.06,1-2.42,2.43-4.67,4.4-6.46,1.67-1.54,3.65-2.78,5.81-3.55-1.11.32-2.18.75-3.21,1.29-2.79,1.47-5.16,3.68-6.82,6.38-.03-.14-.06-.28-.09-.42,0,0-.06-.36-.06-.36-.02-.17-.04-.37-.06-.54,0-.13-.02-.32-.02-.45,0-.06,0-.38,0-.45,0-.06.03-.41.03-.45.01-.13.04-.32.05-.45.11-.78.32-1.54.62-2.27.1-.22.19-.44.31-.65.03-.05.1-.2.13-.24.37-.65.83-1.28,1.35-1.82.11-.13.27-.27.38-.39.04-.04.09-.09.13-.12.16-.14.39-.34.56-.47.13-.11.3-.23.44-.33,1.04-.74,2.23-1.29,3.46-1.6,2.33-.6,4.89-.52,7.11.44-.72,1.75-1.23,3.59-1.7,5.42-.04.13-.11.39-.15.53-.04.12-.14.4-.18.52-.08.18-.15.4-.24.58-.06.11-.14.31-.2.42-.05.1-.13.24-.19.34-.05.09-.19.31-.24.4-.01.02-.03.04-.04.06l-.09.13c-.04.06-.09.13-.13.19-.13.17-.3.39-.44.54-.11.13-.3.33-.42.46-.13.13-.32.31-.46.43-.07.06-.16.15-.24.2-.4.33-.85.65-1.28.93-.17.11-.36.23-.54.33l-.27.15-.28.14c-1.69.83-3.62,1.18-5.48.98l-.21-.02s-.14.14-.14.14c-.32.32-.61.68-.87,1.05-.93,1.31-1.61,2.78-2.1,4.3-.06-.15-.13-.3-.2-.45l-.07-.15-.03-.07-.04-.07s-.15-.29-.15-.29c-.42-.78-.92-1.55-1.56-2.18l-.02-.02-.17-.15-.23.03c-1.51.2-3.09-.1-4.44-.82-.68-.36-1.29-.83-1.84-1.37-.54-.55-1-1.17-1.37-1.85-.3-.55-.51-1.14-.73-1.74-.22-.61-.43-1.22-.64-1.84-.16-.47-.32-.95-.47-1.42,1.21-.47,2.51-.69,3.8-.62,2.67.14,5.26,1.72,6.38,4.19.32.72.52,1.51.57,2.3,0,.05.01.29.01.33,0,.1,0,.23,0,.33,0,.13-.02.27-.03.39l-.03.2c-.81-1.13-1.78-2.11-2.87-2.93-1.41-1.05-3.01-1.82-4.69-2.23,1.63.57,3.12,1.47,4.37,2.61,1.25,1.14,2.27,2.51,2.96,4.02,0,0,.51,1.11.51,1.11.23-.69.61-1.65.69-2.37.01-.11.05-.35.05-.46,0-.09.02-.22.02-.31,0-.08,0-.23,0-.31,0-.1,0-.35-.01-.46-.09-1.52-.65-3.02-1.6-4.21-1-1.27-2.38-2.23-3.91-2.75-2.43-.84-5.16-.52-7.44.59.25.76.5,1.53.75,2.29.21.62.42,1.24.65,1.86.23.63.47,1.28.79,1.87.49.91,1.14,1.74,1.91,2.43.58.52,1.23.96,1.93,1.31,1.4.69,3,.99,4.56.83.11.12.22.25.32.38.83,1.07,1.4,2.33,1.8,3.62-.23.97-.38,1.97-.49,2.96.79.25,1.63.37,2.45.43.6.04,1.23.07,1.83.05,3.12-.04,6.2-1.1,8.7-2.97.13-.11.45-.35.58-.46.18-.16.38-.32.56-.48.21-.2.51-.48.7-.69.1-.11.24-.25.34-.36l.32-.37c.16-.18.31-.39.46-.57.14-.18.37-.51.5-.7.12-.19.28-.43.4-.62.43-.74.84-1.51,1.14-2.31,1.2-3.05,1.58-7.37-.14-10.68l-.28,1.28Z"/>
  <path d="M8.81,4.24c2.24-1.53,4.94-2.34,7.81-2.34,1.64,0,3.25.28,4.78.83,1.48.53,2.85,1.3,4.08,2.3l1.67.25c-1.49-1.57-3.87-2.82-5.44-3.39-1.63-.59-3.34-.88-5.08-.88-3.05,0-5.93.86-8.32,2.5-1.23.84-2.34,1.89-3.28,3.11-.97,1.26-1.99,3.22-2.61,4.82l1.05-.19c.58-1.52,1.35-2.89,2.27-4.09.88-1.14,1.92-2.12,3.08-2.91Z"/>
  <path d="M3.58,21.37l-1.01-.82c1.05,4.49,4.53,8.02,8.86,9.57l.2-.92c-3.74-1.42-6.6-4.09-8.05-7.82Z"/>
</svg>