<?xml version="1.0" encoding="UTF-8"?>
<svg id="Layer_1" data-name="Layer 1" xmlns="http://www.w3.org/2000/svg" xmlns:xlink="http://www.w3.org/1999/xlink" viewBox="0 0 200 200">
  <defs>
    <style>
      .cls-1 {
        fill: #e2e3e4;
      }

      .cls-2 {
        clip-path: url(#clippath);
      }
    </style>
    <clipPath id="clippath">
      <path class="cls-1" d="M145.55,58.08c-.76,0-1.57.18-2.38.55l-88.66,34.21c-6.06,2.45-5.98,5.83-1.07,7.29l22.78,7.13.06-.04.08.02,7.79,25.71c1.07,2.84.54,3.99,3.53,3.99,2.3,0,3.3-1.07,4.6-2.3.81-.78,5.53-5.37,10.85-10.54.08-.08.13-.13.13-.13l22.89,16.88c1.59.87,3.02,1.24,4.23,1.1,2.11-.15,3.62-1.77,4.31-5.01l15.11-71.17c1.25-5.07-1.12-7.84-4.25-7.69ZM100,.05C44.77.05,0,44.82,0,100.05s44.77,100,100,100,100-44.77,100-100S155.23.05,100,.05ZM100,190.61c-49.94,0-90.57-40.63-90.57-90.57S50.06,9.48,100,9.48s90.57,40.63,90.57,90.57-40.63,90.57-90.57,90.57Z"/>
    </clipPath>
  </defs>
  <path class="cls-1" d="M145.55,58.08c-.76,0-1.57.18-2.38.55l-88.66,34.21c-6.06,2.45-5.98,5.83-1.07,7.29l22.78,7.13.06-.04.08.02,7.79,25.71c1.07,2.84.54,3.99,3.53,3.99,2.3,0,3.3-1.07,4.6-2.3.81-.78,5.53-5.37,10.85-10.54.08-.08.13-.13.13-.13l22.89,16.88c1.59.87,3.02,1.24,4.23,1.1,2.11-.15,3.62-1.77,4.31-5.01l15.11-71.17c1.25-5.07-1.12-7.84-4.25-7.69ZM100,.05C44.77.05,0,44.82,0,100.05s44.77,100,100,100,100-44.77,100-100S155.23.05,100,.05ZM100,190.61c-49.94,0-90.57-40.63-90.57-90.57S50.06,9.48,100,9.48s90.57,40.63,90.57,90.57-40.63,90.57-90.57,90.57Z"/>
  <g class="cls-2">
    <g>
      <path class="cls-1" d="M0,100.78c.4,55.23,45.5,99.67,100.73,99.27,10.96-.08,21.49-1.95,31.34-5.28,22.81-25.15,36.63-58.59,36.36-95.22-.27-36.63-14.57-69.86-37.75-94.68C120.78,1.68,110.23-.03,99.27.05,44.04.45-.4,45.55,0,100.78Z"/>
      <path class="cls-1" d="M99.27.05C63.94.31,33.04,18.87,15.46,46.67c27.24,61.66,77.42,110.83,139.66,136.8,27.25-18.04,45.14-49.04,44.88-84.15C199.59,44.09,154.5-.35,99.27.05Z"/>
      <path class="cls-1" d="M99.88,83.5c-38.36.28-72.64,17.38-95.96,44.23,12.09,42.03,50.94,72.64,96.81,72.31,45.87-.33,84.28-31.52,95.75-73.71-23.71-26.51-58.24-43.11-96.6-42.83Z"/>
    </g>
  </g>
</svg>