<?xml version="1.0" encoding="UTF-8"?>
<svg id="Layer_1" data-name="Layer 1" xmlns="http://www.w3.org/2000/svg" xmlns:xlink="http://www.w3.org/1999/xlink" viewBox="0 0 200 200">
  <defs>
    <style>
      .cls-1 {
        fill: #fff;
        filter: url(#drop-shadow-1);
      }

      .cls-1, .cls-2, .cls-3 {
        fill-rule: evenodd;
      }

      .cls-4 {
        fill: url(#GradientFill_15-2);
      }

      .cls-2 {
        fill: url(#GradientFill_10);
      }

      .cls-3 {
        fill: url(#GradientFill_15);
      }

      .cls-5 {
        fill: url(#radial-gradient);
      }

      .cls-6 {
        fill: #005de7;
      }

      .cls-7 {
        fill: #006aff;
      }
    </style>
    <filter id="drop-shadow-1" x="-2.92" y="-2.68" width="209.28" height="209.04" filterUnits="userSpaceOnUse">
      <feOffset dx="1.63" dy="1.82"/>
      <feGaussianBlur result="blur" stdDeviation="1.45"/>
      <feFlood flood-color="#000b72" flood-opacity=".25"/>
      <feComposite in2="blur" operator="in"/>
      <feComposite in="SourceGraphic"/>
    </filter>
    <linearGradient id="GradientFill_10" data-name="GradientFill 10" x1="100" y1="205.8" x2="100" y2="-28.43" gradientUnits="userSpaceOnUse">
      <stop offset="0" stop-color="#c09249"/>
      <stop offset=".12" stop-color="#9f5411"/>
      <stop offset=".4" stop-color="#fcf5a1"/>
      <stop offset=".67" stop-color="#daa93f"/>
      <stop offset=".85" stop-color="#c68400"/>
      <stop offset="1" stop-color="#ac590f"/>
    </linearGradient>
    <radialGradient id="GradientFill_15" data-name="GradientFill 15" cx="101.33" cy="119.22" fx="101.33" fy="119.22" r="195.32" gradientUnits="userSpaceOnUse">
      <stop offset="0" stop-color="#fff"/>
      <stop offset=".1" stop-color="#fff"/>
      <stop offset=".4" stop-color="#f0f0f0"/>
      <stop offset=".73" stop-color="#c9bfac"/>
      <stop offset=".87" stop-color="#cac9c9"/>
      <stop offset="1" stop-color="#b2ab9d"/>
    </radialGradient>
    <radialGradient id="radial-gradient" cx="111.3" cy="92.89" fx="111.3" fy="92.89" r="227.56" gradientUnits="userSpaceOnUse">
      <stop offset="0" stop-color="#fff"/>
      <stop offset=".21" stop-color="#fcfcfc"/>
      <stop offset=".35" stop-color="#f3f3f3"/>
      <stop offset=".46" stop-color="#e4e4e4"/>
      <stop offset=".56" stop-color="#cfcfcf"/>
      <stop offset=".66" stop-color="#b4b4b4"/>
      <stop offset=".75" stop-color="#939393"/>
      <stop offset=".83" stop-color="#6b6b6b"/>
      <stop offset=".91" stop-color="#3e3e3e"/>
      <stop offset=".98" stop-color="#0b0b0b"/>
      <stop offset="1" stop-color="#000"/>
    </radialGradient>
    <radialGradient id="GradientFill_15-2" data-name="GradientFill 15" cx="90.64" cy="102.63" fx="90.64" fy="102.63" r="196.81" xlink:href="#GradientFill_15"/>
  </defs>
  <path class="cls-1" d="M100,0h0c27.54,0,52.54,11.23,70.65,29.35,18.11,18.11,29.34,43.11,29.34,70.65h0c0,27.55-11.23,52.55-29.35,70.66-18.11,18.11-43.11,29.34-70.64,29.34h-.01c-27.54,0-52.54-11.23-70.65-29.35C11.23,152.54,0,127.54,0,100.01h0c0-27.55,11.23-52.55,29.35-70.66C47.46,11.23,72.46,0,99.99,0h0ZM100,3.79h-.01c-26.49,0-50.54,10.81-67.96,28.23C14.6,49.45,3.8,73.51,3.8,100h0c0,26.5,10.81,50.55,28.23,67.97,17.43,17.43,41.48,28.23,67.97,28.23h.01c26.49,0,50.54-10.81,67.96-28.23,17.43-17.43,28.23-41.48,28.23-67.97h0c0-26.5-10.81-50.55-28.23-67.97C150.55,14.6,126.5,3.8,100,3.79Z"/>
  <path class="cls-2" d="M100,3.84c52.99,0,96.2,43.22,96.2,96.2s-43.22,96.21-96.2,96.21S3.8,153.03,3.8,100.05,47.01,3.84,100,3.84Z"/>
  <path class="cls-3" d="M100,3.12c52.99,0,96.2,43.22,96.2,96.2s-43.22,96.21-96.2,96.21S3.8,152.31,3.8,99.32,47.01,3.12,100,3.12Z"/>
  <g>
    <path class="cls-7" d="M162.06,173.49c-16.7,14.12-38.43,22.71-62.12,22.71-53.04,0-96.13-43.09-96.13-96.26C3.8,60.91,27.26,27.14,60.77,12.16,39.78,29.84,26.4,56.24,26.4,85.83c0,53.04,43.09,96.13,96.26,96.13,14,0,27.38-3.07,39.41-8.47Z"/>
    <path class="cls-5" d="M196.2,99.95c0,29.47-13.26,55.86-34.13,73.54-12.03,5.4-25.41,8.47-39.41,8.47-53.16,0-96.26-43.09-96.26-96.13,0-29.59,13.38-55.99,34.38-73.67,11.91-5.4,25.17-8.35,39.17-8.35,53.16,0,96.26,43.09,96.26,96.13Z"/>
    <path class="cls-4" d="M99.94,3.82c-14,0-27.26,2.95-39.16,8.35-14.33,12.07-25.11,28.19-30.51,46.62-1.35,4.61-3.84,14.37-3.86,27.05-.05,23.59,8.47,40.62,10.28,44.11,6.67,12.89,15.2,21.8,21.7,27.42-.14,1.87-.63,5.29-2.71,8.94-1.89,3.33-4.26,5.4-5.73,6.5,3.38.3,7.87.36,13.03-.49,4.66-.77,8.54-2.06,11.48-3.28,7.88,4.52,25.05,12.94,48.2,12.94,17.74,0,31.55-4.95,39.41-8.47,20.87-17.68,34.13-44.08,34.13-73.54,0-53.04-43.09-96.13-96.26-96.13Z"/>
    <path class="cls-6" d="M49.94,172.8c1.9,3.02,4.75,6.83,8.89,10.5,6.68,5.92,13.57,8.71,17.88,10.06,7.63,1.78,17.54,2.96,29.06,2.37,16.8-.87,38.14-5.83,56.3-22.24-8.5,3.77-27.14,10.61-50.89,7.78-16.66-1.99-29.27-7.95-36.72-12.24-3.09,1.28-7.28,2.66-12.36,3.41-4.78.7-8.95.64-12.16.36Z"/>
    <g>
      <path class="cls-7" d="M51.3,119.76c0-1.09.36-2.23,1.07-3.37l22.32-37.2c.04-.05.06-.12.06-.19,0-.12-.1-.19-.25-.19h-21.83c-.95.04-1.4-.42-1.37-1.37v-3.26c-.04-.95.42-1.4,1.37-1.37h28.94c.95-.04,1.4.42,1.38,1.37v1.4c0,1.05-.36,2.16-1.08,3.3l-22.61,37.66s-.04.09-.04.19c0,.12.1.19.26.19h22.15c.95-.04,1.4.42,1.37,1.37v3.26c.04.95-.42,1.4-1.37,1.37h-29.01c-.95.04-1.4-.42-1.37-1.37v-1.79Z"/>
      <path class="cls-7" d="M116.28,90.8c-.04-.95.42-1.4,1.37-1.37h2.94c.95-.04,1.4.42,1.37,1.37v30.74c.04.95-.42,1.4-1.37,1.37h-2.94c-.95.04-1.4-.42-1.37-1.37v-2.51c-3.53,2.93-7.34,4.4-11.49,4.4-4.83,0-8.91-1.7-12.27-5.05-3.36-3.37-5.06-7.44-5.06-12.25s1.67-8.74,4.99-12.11c3.4-3.35,7.51-5.05,12.34-5.05,4.14,0,7.96,1.47,11.49,4.4v-2.58ZM96.51,98.05c-2.19,2.23-3.3,4.93-3.3,8.09s1.11,5.98,3.36,8.2c2.25,2.25,4.96,3.37,8.19,3.37s5.91-1.12,8.12-3.3c2.25-2.26,3.4-5,3.4-8.27s-1.11-5.9-3.33-8.16c-2.22-2.21-4.96-3.32-8.26-3.32s-5.94,1.14-8.19,3.39Z"/>
      <path class="cls-7" d="M126.85,77.55c-.04-.93.42-1.39,1.37-1.37h2.94c.94-.02,1.4.44,1.37,1.37v43.99c.04.95-.43,1.4-1.37,1.37h-2.94c-.95.04-1.4-.42-1.37-1.37v-43.99Z"/>
      <path class="cls-7" d="M166.27,94.02c3.37,3.35,5.03,7.41,5.03,12.13s-1.69,8.95-5.05,12.3c-3.36,3.33-7.41,5-12.14,5s-8.87-1.7-12.23-5.05c-3.36-3.37-5.06-7.42-5.06-12.21s1.67-8.77,4.99-12.14c3.36-3.35,7.51-5.05,12.47-5.05,4.67,0,8.64,1.67,12,5.04ZM145.85,98.05c-2.19,2.23-3.3,4.93-3.3,8.09s1.11,5.98,3.36,8.2c2.25,2.25,4.96,3.37,8.19,3.37s5.91-1.12,8.12-3.3c2.25-2.26,3.4-5,3.4-8.27s-1.11-5.9-3.33-8.16c-2.22-2.21-4.96-3.32-8.26-3.32s-5.94,1.14-8.19,3.39Z"/>
    </g>
  </g>
</svg>