<?xml version="1.0" encoding="UTF-8"?>
<svg id="Layer_2" data-name="Layer 2" xmlns="http://www.w3.org/2000/svg" viewBox="0 0 191.14 169.3">
  <defs>
    <style>
      .cls-1, .cls-2 {
        fill: #bf9c79;
      }

      .cls-2 {
        fill-rule: evenodd;
      }
    </style>
  </defs>
  <g id="Layer_2-2" data-name="Layer 2">
    <g>
      <path class="cls-1" d="M95.87,54.88c-.18.45-.91,2.13-2.14,4.59.71-1.47,1.42-3,2.14-4.59Z"/>
      <path class="cls-1" d="M95.87,54.88c-.18.45-.91,2.13-2.14,4.59.71-1.47,1.42-3,2.14-4.59Z"/>
      <path class="cls-1" d="M98.03,59.29c-1.05-2.1-1.72-3.63-1.98-4.23.67,1.46,1.33,2.87,1.98,4.23Z"/>
      <path class="cls-1" d="M137.69,85.34c-.6.79-1.22,1.56-1.86,2.32.64-.75,1.26-1.53,1.86-2.32Z"/>
      <path class="cls-1" d="M98.03,59.29c-1.05-2.1-1.72-3.63-1.98-4.23.67,1.46,1.33,2.87,1.98,4.23Z"/>
      <path class="cls-1" d="M145.2,60c-1.58-.3-3.1.73-3.41,2.3-.28,1.46-.64,2.9-1.05,4.3-6.02,2.55-27.79,9.27-44.18-17.42-.37-.59-.91-.59-1.28,0-18.56,30.22-44.02,17.59-45.7,16.72h0c-1.12-4.04-1.73-8.3-1.73-12.69,0-26.14,21.26-47.4,47.4-47.4,21.93,0,40.86,14.85,46.06,36.12.38,1.56,1.95,2.52,3.51,2.14,1.55-.38,2.51-1.95,2.13-3.51C141.13,16.68,119.87,0,95.26,0c-29.34,0-53.21,23.87-53.21,53.22,0,8.88,2.18,17.26,6.05,24.62.27.53.55,1.04.85,1.56h0c1.08,1.91,2.27,3.75,3.58,5.5,2.58,3.47,5.56,6.61,8.88,9.36,1.61,1.32,3.29,2.56,5.05,3.69,2,1.29,4.08,2.45,6.24,3.46,1.16-1.56,2.28-3.18,3.37-4.85,11.47-17.59,19.84-41.76,19.84-41.76-14.63,23.37-27.54,29.43-35.43,30.6-1.55-1.68-2.99-3.46-4.28-5.36,23.98.09,36.13-20.45,39.04-26.12.36-.73,1-.73,1.38,0,2.85,5.57,14.62,25.47,37.73,26.11-1.24,1.83-2.63,3.55-4.11,5.18-7.95-1.58-20.35-8.12-34.3-30.41,0,0,8.22,23.77,19.53,41.29,1.08,1.67,2.19,3.29,3.33,4.85,2.06-1.01,4.06-2.17,5.96-3.44,1.65-1.1,3.25-2.3,4.77-3.58.31-.26.62-.52.92-.79,0,0,.01-.01.02-.02.13-.12.26-.23.39-.35h0c.3-.27.59-.54.87-.81.36-.34.72-.68,1.07-1.03.26-.26.52-.53.78-.8.14-.15.28-.29.42-.44h0c.24-.25.47-.5.7-.76.02-.02.05-.04.06-.07.04-.05.09-.09.12-.14.04-.05.08-.09.12-.13.28-.31.55-.62.82-.93.64-.75,1.26-1.53,1.86-2.32,1.38-1.82,2.65-3.73,3.79-5.72.36-.64.71-1.28,1.05-1.93.34-.65.66-1.31.97-1.98,1.8-3.86,3.16-7.98,4-12.31.31-1.58-.72-3.1-2.3-3.41ZM93.5,59.94c-8.9,18.48-16.64,28.57-22.34,34.07-1.33-.78-2.62-1.64-3.86-2.54,12.87-7.62,22.08-23.36,26.2-31.53ZM120.18,93.53c-5.65-5.61-13.21-15.66-21.86-33.64,4.03,7.99,12.97,23.35,25.5,31.15-1.17.89-2.38,1.72-3.64,2.5Z"/>
      <path class="cls-1" d="M72.6,101.34c2.41-.4,4.39-1.16,6.35-1.34,1.26-.12,2.73.07,3.86.61,5.77,2.69,4.78,2.68,10.88.59,1.41-.51,2.76-.5,4.16,0,6.1,2.08,5.1,2.15,11.1-.7,1.05-.52,2.45-.65,3.64-.52,1.96.21,3.85.57,6.19.96-.78.56-1.35,1.02-2.69,1.86-3.89,2.2-4.18,2.57-9.74,1.15-2.07-.6-3.92-.57-5.77.46-3.07,1.71-6.3,1.89-9.42.07-2.04-1.19-4.17-1.3-6.36-.39-3.21,1.34-6.03.46-9.14-1.14-.9-.46-1.86-.88-3.08-1.61Z"/>
      <path class="cls-1" d="M81.74,97.24h0c.81-.11,2.2-.81,5.03-1.87,1.28-.48,2.52-.49,3.79,0,5.5,2.1,4.44,2.1,10.12,0,1-.37,2.29-.33,3.34-.06,1.74.45,3.39,1.23,5.38,1.98-.99.4-1.73.72-2.49,1-4.82,1.82-3.98,1.93-8.84,0-1.78-.71-3.45-.78-5.13.09-2.78,1.45-5.52,1.62-8.34.06-.93-.52-2.05-.99-2.85-1.2Z"/>
      <path class="cls-1" d="M88.64,92.33c2.04-.77,3.69-1.57,5.44-1.99,1.12-.27,2.48-.26,3.54.12,2.68.97,4.52,1.71,4.88,1.84h0c-.73.27-1.83.69-2.79,1.15-2.79,1.35-5.4,1.49-8.14,0-.55-.33-1.69-.64-2.94-1.14Z"/>
      <g>
        <path class="cls-2" d="M15.33,129.49l1.5-1.55c-1.91-1.53-4.25-2.28-6.56-2.28-4.02,0-8.43,2.43-9.85,7.09-.28.9-.42,1.84-.42,2.8s.14,1.9.42,2.8c1.43,4.66,5.83,7.09,9.85,7.09,2.44,0,4.91-.84,6.88-2.55v-6.7h-4.22c.84,1.48.95,3.04.95,4.99v1.92l-.26.18c-1.02.71-2.17,1.09-3.35,1.09-4.06,0-6.97-4.23-6.97-8.81s2.91-8.81,6.97-8.81c1.98,0,3.78,1.04,5.06,2.75"/>
        <path class="cls-2" d="M144.79,129.49l1.5-1.55c-1.91-1.53-4.25-2.28-6.56-2.28-4.02,0-8.43,2.43-9.85,7.09-.28.9-.42,1.84-.42,2.8s.14,1.9.42,2.8c1.43,4.66,5.83,7.09,9.85,7.09,2.31,0,4.65-.75,6.56-2.28l-1.5-1.54c-1.28,1.71-3.09,2.76-5.07,2.76-4.06,0-6.97-4.23-6.97-8.81s2.91-8.81,6.97-8.81c1.98,0,3.78,1.04,5.06,2.75"/>
        <path class="cls-2" d="M81.27,129.95l-3.42,13.36-6.47-17.03h-3.81,0s-.96.01-.96.01c1.35,1.61,2.4,3.68,3.17,5.66l5.04,12.85h.9c.88,0,1.73-.2,2.51-.69.66-.42,1.18-1,1.5-1.79l2.28-9.43,3.25,11.89h.9c.88,0,1.73-.2,2.51-.69.66-.42,1.18-1,1.5-1.79l6.27-16.04h-1.5l-6.66,17.03-4.4-16.21-2.62,2.85Z"/>
        <polygon class="cls-2" points="173.26 126.29 180.42 138.26 180.42 144.8 183.68 144.8 183.68 137.29 191.14 126.29 189.95 126.29 182.98 136.53 176.85 126.29 173.26 126.29"/>
        <polygon class="cls-2" points="106.03 126.29 113.18 138.26 113.18 144.8 116.45 144.8 116.45 137.29 123.9 126.29 122.71 126.29 115.74 136.53 109.61 126.29 106.03 126.29"/>
        <path class="cls-2" d="M171.29,126.29h-15.63v2.85c1.7-1.67,3.18-2.13,5.65-2.13h.54v17.79h3.26v-17.79h.54c2.47,0,3.95.46,5.65,2.13v-2.85Z"/>
        <path class="cls-2" d="M48.52,126.29h-15.64v2.85c1.7-1.67,3.18-2.13,5.65-2.13h.54v17.79h3.26v-17.79h.54c2.47,0,3.95.46,5.65,2.13v-2.85Z"/>
        <path class="cls-2" d="M147.79,126.29c.84,1.48.95,3.04.95,4.99v13.53h3.26v-18.52h-4.22Z"/>
        <path class="cls-2" d="M51.41,144.8h13.89v-2.89c-2.91,2.54-6.53,2.17-10.08,2.17h-.54v-6.01c0-1.2.98-2.18,2.18-2.18h4.83v-.7h-7.02v-8.19h.54c3.55,0,6.66-.37,9.57,2.17v-2.89h-14.33c.85,1.48.95,3.04.95,4.99v13.53Z"/>
        <path class="cls-2" d="M23.64,126.29c.66,2.48-.83,5.81-1.68,7.99l-4.13,10.53h.93c.14-.39.28-.77.43-1.16.21-.56.48-1.07.82-1.53.37-.51.84-.88,1.36-1.15.65-.34,1.42-.43,2.13-.43h6.72l1.62,4.27h3.74c-1-2.53-1.99-5.06-2.97-7.6-1.1-2.83-2.22-5.64-3.33-8.46l-.96-2.45h-4.68ZM29.94,139.82h-9.25l4.82-11.73,4.43,11.73Z"/>
        <path class="cls-2" d="M98.32,126.29c.66,2.48-.83,5.81-1.68,7.99l-4.13,10.53h.93c.14-.39.28-.77.43-1.16.21-.56.48-1.07.82-1.53.37-.51.84-.88,1.36-1.15.65-.34,1.42-.43,2.13-.43h6.72l1.62,4.27h3.74c-1-2.53-1.99-5.06-2.97-7.6-1.1-2.83-2.22-5.64-3.33-8.46l-.96-2.45h-4.68ZM104.62,139.82h-9.25l4.82-11.73,4.43,11.73Z"/>
      </g>
      <g>
        <path class="cls-1" d="M50.24,157.51h2.1c-.03.46.04.96.22,1.5l.24.71.1.22,2.82,7.56,2.78-8.49c.11-.33.16-.62.16-.85,0-.2-.04-.42-.11-.64h1.62c-.23.37-.42.76-.59,1.14-.03.11-.08.22-.13.35l-.05.11-.21.58-.08.24-3.2,9.14h-1.22c-.09-.25-.3-.85-.63-1.81l-.21-.6-.8-2.14c-.37-.91-.96-2.44-1.75-4.6l-.08-.24-.11-.27-.18-.42-.16-.42-.14-.29c-.06-.14-.19-.4-.39-.79Z"/>
        <path class="cls-1" d="M60.73,156.61s.02-.08.03-.14c.27-.84.68-1.25,1.24-1.25.19,0,.4.05.63.16l.05.02.5.31c.05.05.11.09.18.11.17.09.33.13.48.13.22,0,.5-.14.84-.43l.11-.1.05-.06-.03.11-.05.13c-.01.06-.04.15-.1.25-.33.68-.74,1.02-1.22,1.02-.22,0-.45-.06-.67-.19-.1-.05-.27-.18-.53-.39-.26-.13-.46-.19-.61-.19-.2,0-.43.11-.68.34l-.21.19ZM61.82,169.08c.13-.4.2-.87.21-1.43v-8.68c0-.51-.07-1-.21-1.46h1.91c-.12.37-.18.86-.19,1.46v8.68c0,.55.06,1.02.19,1.43h-1.91Z"/>
        <path class="cls-1" d="M66.4,157.51h1.53l6.73,9.03v-7.6c0-.44-.05-.92-.16-1.43h1.11c-.11.57-.16,1.04-.16,1.43v10.14h-.84l-7.13-9.57v8.14c0,.52.06,1,.18,1.43h-1.11c.09-.36.14-.84.16-1.41v-7.96c0-.48-.01-.81-.03-.98-.07-.61-.16-1.02-.27-1.22Z"/>
        <path class="cls-1" d="M78.38,169.08c.13-.4.2-.87.21-1.41v-8.73c0-.5-.06-.98-.18-1.43h1.86c-.12.49-.18.97-.18,1.43v3.71h5.48v-3.71c0-.46-.06-.94-.19-1.43h1.86c-.11.36-.17.84-.19,1.43v8.73c0,.45.07.92.23,1.41h-1.91c.14-.45.21-.93.21-1.43v-4.29h-5.48v4.29c0,.48.06.96.19,1.43h-1.91Z"/>
        <path class="cls-1" d="M95.49,169.08l.05-.19.03-.19c.07-.45.11-.87.11-1.27v-9.02c0-.32-.05-.62-.14-.9h1.8l-.05.19-.04.18c-.06.29-.09.56-.09.8v9.67h2.16c.92,0,1.82-.16,2.68-.48l-.58,1.21h-5.93Z"/>
        <path class="cls-1" d="M103.58,163.19c.03-1.41.4-2.59,1.09-3.53,1.09-1.49,2.53-2.23,4.32-2.23,1.57,0,2.86.56,3.86,1.67.95,1.07,1.45,2.4,1.49,4,.03,1.38-.31,2.63-1.01,3.74-.77,1.2-1.81,1.94-3.1,2.22-.49.11-.96.16-1.41.16-2.05,0-3.58-.98-4.6-2.95-.46-.89-.68-1.91-.64-3.07ZM105.31,163.21c-.01,1.35.25,2.51.79,3.5.65,1.22,1.6,1.83,2.84,1.83s2.22-.61,2.86-1.83c.51-.98.77-2.16.76-3.53,0-.3-.02-.63-.06-.98-.31-2.76-1.49-4.14-3.55-4.14-1.29,0-2.24.57-2.88,1.7-.49.9-.74,2.05-.76,3.45Z"/>
        <path class="cls-1" d="M116.8,157.51h1.53l6.73,9.03v-7.6c0-.44-.05-.92-.16-1.43h1.11c-.11.57-.16,1.04-.16,1.43v10.14h-.84l-7.13-9.57v8.14c0,.52.06,1,.18,1.43h-1.11c.09-.36.14-.84.16-1.41v-7.96c0-.48-.01-.81-.03-.98-.07-.61-.16-1.02-.27-1.22Z"/>
        <path class="cls-1" d="M137.86,157.65l.14,1.56c-.49-.44-1.23-.78-2.22-1.01-.36-.08-.68-.13-.95-.14-1.45-.04-2.59.4-3.42,1.32-.79.88-1.19,2.05-1.19,3.51,0,.8.12,1.67.37,2.6.55,2.08,1.82,3.11,3.82,3.11.64,0,1.26-.09,1.86-.27.2-.06.39-.13.55-.19v-3.41c0-.29,0-.51-.02-.66l-.02-.23-.1-.53h1.77l-.05.32c-.02.16-.03.31-.03.45v4.44l.06.42-.31-.03-.45-.03c-.07-.01-.3.02-.67.08l-.31.05-.9.18c-.44.09-.93.13-1.46.13-1.73,0-3.12-.51-4.19-1.53-1.07-1.02-1.6-2.4-1.6-4.12,0-.65.08-1.32.24-2.01.32-1.35,1.01-2.41,2.06-3.17,1.02-.73,2.23-1.09,3.65-1.09.25,0,.52.02.84.05l.31.03.63.08.18.03.77.1h.18s.05.02.06.02h.14l.11-.02.13-.02Z"/>
      </g>
    </g>
  </g>
</svg>